<svg aria-hidden="true" style="position: absolute; width: 0; height: 0; overflow: hidden;" version="1.1" xmlns="http://www.w3.org/2000/svg" xmlns:xlink="http://www.w3.org/1999/xlink">
<defs>
<symbol id="icon-amazon" viewBox="0 0 32 32">
<path fill="#f90" style="fill: var(--color1, #f90)" d="M19.755 18.616c-1.85 1.366-4.532 2.092-6.842 2.092-3.237 0-6.152-1.197-8.358-3.188-0.173-0.157-0.019-0.37 0.189-0.249 2.38 1.385 5.323 2.219 8.363 2.219 2.050 0 4.304-0.426 6.379-1.305 0.313-0.133 0.575 0.206 0.269 0.432z"></path>
<path fill="#f90" style="fill: var(--color1, #f90)" d="M20.524 17.737c-0.236-0.303-1.564-0.143-2.16-0.072-0.18 0.022-0.209-0.136-0.046-0.25 1.059-0.744 2.794-0.529 2.996-0.28 0.203 0.252-0.053 1.991-1.046 2.821-0.153 0.127-0.298 0.059-0.23-0.109 0.223-0.558 0.723-1.807 0.486-2.11z"></path>
<path fill="#221f1f" style="fill: var(--color2, #221f1f)" d="M18.406 12.16c0 0.108 0.084 0.182 0.187 0.182l1.693 0.001-1.944 2.789c-0.119 0.178-0.121 0.379-0.121 0.497v0.733c0 0.106 0.118 0.228 0.231 0.167 1.103-0.585 2.425-0.528 3.423-0.006 0.122 0.064 0.239-0.060 0.239-0.165v-0.772c-0.010-0.104-0.044-0.211-0.172-0.282-0.566-0.318-1.225-0.412-1.848-0.397l1.678-2.396c0.156-0.215 0.243-0.351 0.244-0.455v-0.62c0-0.107-0.084-0.182-0.187-0.182l-3.239 0c-0.002-0-0.004-0-0.006-0-0.098 0-0.178 0.080-0.178 0.178 0 0.002 0 0.004 0 0.005v0.723zM24.805 11.16c1.463 0 2.253 1.256 2.253 2.853 0 1.543-0.873 2.767-2.253 2.767-1.435 0-2.217-1.256-2.217-2.821 0-1.575 0.791-2.799 2.217-2.799zM24.814 12.193c-0.727 0-0.773 0.99-0.773 1.607s-0.009 1.937 0.764 1.937c0.764 0 0.8-1.064 0.8-1.713 0-0.426-0.018-0.937-0.147-1.341-0.11-0.351-0.331-0.489-0.644-0.489zM15.824 14.258v-0.213c-0.713 0-1.466 0.153-1.466 0.992 0 0.427 0.221 0.715 0.599 0.715 0.276 0 0.525-0.171 0.682-0.448 0.193-0.341 0.184-0.662 0.184-1.046zM16.818 16.661c-0.065 0.059-0.184 0.060-0.233 0.023-0.337-0.26-0.565-0.657-0.565-0.657-0.541 0.551-0.924 0.717-1.625 0.717-0.83 0-1.476-0.513-1.476-1.537 0-0.8 0.433-1.344 1.051-1.611 0.535-0.235 1.281-0.278 1.853-0.342 0 0 0.047-0.617-0.12-0.843-0.13-0.175-0.35-0.256-0.553-0.256-0.365-0.002-0.719 0.197-0.789 0.58-0.020 0.109-0.101 0.201-0.186 0.192l-0.944-0.103c-0.085-0.012-0.151-0.084-0.151-0.172 0-0.012 0.001-0.024 0.004-0.035l-0 0.001c0.22-1.159 1.266-1.509 2.204-1.509 0.479 0 1.106 0.128 1.484 0.491 0.479 0.448 0.433 1.045 0.433 1.696v1.535c0 0.462 0.192 0.665 0.372 0.913 0.063 0.090 0.077 0.196-0.003 0.262-0.201 0.169-0.759 0.653-0.759 0.653zM2.904 14.258v-0.213c-0.712 0-1.465 0.153-1.465 0.992 0 0.427 0.221 0.715 0.599 0.715 0.276 0 0.525-0.171 0.682-0.448 0.193-0.341 0.184-0.662 0.184-1.046zM3.898 16.661c-0.065 0.059-0.184 0.060-0.233 0.023-0.337-0.26-0.565-0.657-0.565-0.657-0.541 0.551-0.924 0.717-1.625 0.717-0.829-0-1.475-0.513-1.475-1.537 0-0.8 0.433-1.344 1.051-1.611 0.535-0.235 1.282-0.278 1.853-0.342 0 0 0.048-0.617-0.12-0.843-0.13-0.175-0.35-0.256-0.553-0.256-0.366-0.002-0.719 0.197-0.789 0.58-0.020 0.109-0.101 0.201-0.186 0.192l-0.944-0.103c-0.085-0.011-0.151-0.084-0.151-0.172 0-0.012 0.001-0.024 0.004-0.035l-0 0.001c0.219-1.158 1.265-1.508 2.204-1.508 0.479 0 1.106 0.128 1.484 0.491 0.479 0.448 0.433 1.045 0.433 1.696v1.535c0 0.462 0.192 0.665 0.372 0.913 0.063 0.090 0.077 0.196-0.003 0.262-0.201 0.169-0.758 0.653-0.758 0.653zM6.78 13.811c0-0.586-0.028-1.395 0.681-1.395 0.699 0 0.607 0.83 0.607 1.395l0.001 2.681c0 0.097 0.078 0.176 0.177 0.181h0.985c0.001 0 0.003 0 0.004 0 0.101 0 0.183-0.081 0.186-0.181v-2.682c0-0.287-0.009-0.713 0.092-0.969s0.35-0.415 0.589-0.415c0.285 0 0.506 0.096 0.58 0.436 0.046 0.202 0.028 0.735 0.028 0.948l0.001 2.681c0 0.097 0.078 0.176 0.177 0.181h0.984c0.001 0 0.003 0 0.004 0 0.101 0 0.183-0.081 0.185-0.181v-0l0.001-3.192c0-0.543 0.064-1.16-0.249-1.586-0.276-0.383-0.726-0.553-1.141-0.553-0.579 0-1.122 0.298-1.361 0.937-0.276-0.639-0.663-0.937-1.279-0.937-0.607 0-1.058 0.298-1.297 0.937h-0.019v-0.646c0-0 0-0 0-0 0-0.102-0.082-0.184-0.184-0.184-0 0-0 0-0 0h-0.92c0 0 0 0 0 0-0.101 0-0.184 0.082-0.184 0.184 0 0 0 0 0 0v-0 5.039c0 0.101 0.082 0.184 0.184 0.184h0.984c0 0 0 0 0 0 0.102 0 0.184-0.082 0.184-0.184v-2.679zM29.148 16.489c0 0 0 0 0 0 0 0.102-0.082 0.184-0.184 0.184h-0.984c-0.102-0-0.184-0.082-0.184-0.184 0-0 0-0 0-0v0-5.039c0-0.102 0.082-0.184 0.184-0.184h0.91c0.107 0 0.184 0.086 0.184 0.144v0.771h0.019c0.276-0.692 0.662-1.022 1.343-1.022 0.442 0 0.874 0.16 1.15 0.596 0.258 0.404 0.258 1.085 0.258 1.575v3.183c-0.014 0.091-0.092 0.159-0.185 0.159-0.001 0-0.003 0-0.004-0h-0.988c-0.090-0.004-0.163-0.072-0.175-0.158l-0-0.001 0.001-3.056c0-1.023-0.392-1.053-0.617-1.053-0.263 0-0.475 0.206-0.568 0.397-0.137 0.309-0.16 0.625-0.16 0.965v2.721z"></path>
</symbol>
<symbol id="icon-protection" viewBox="0 0 32 32">
<path fill="none" stroke="#2468ff" style="stroke: var(--color3, #2468ff)" stroke-linejoin="round" stroke-linecap="round" stroke-miterlimit="4" stroke-width="0.8101" d="M12.479 15.473l2.328 2.322 4.815-4.803"></path>
<path fill="none" stroke="#2468ff" style="stroke: var(--color3, #2468ff)" stroke-linejoin="round" stroke-linecap="round" stroke-miterlimit="4" stroke-width="0.8101" d="M16.541 26.712c1.902-1.050 8.687-5.634 8.954-17.72 0.009-0.437-0.265-0.844-0.679-0.988-2.573-0.887-5.566-1.399-8.767-1.399h0.003c-3.2 0-6.193 0.513-8.767 1.399-0.415 0.143-0.689 0.55-0.679 0.988 0.267 12.086 7.052 16.67 8.953 17.719 0.142 0.080 0.311 0.128 0.491 0.128s0.35-0.047 0.496-0.13l-0.005 0.003z"></path>
<path fill="none" stroke="#2468ff" style="stroke: var(--color3, #2468ff)" stroke-linejoin="miter" stroke-linecap="butt" stroke-miterlimit="4" stroke-width="0.8101" d="M21.463 0.39h-10.927c-5.604 0-10.146 4.543-10.146 10.147v10.927c0 5.604 4.543 10.146 10.147 10.146h10.927c5.604 0 10.146-4.543 10.146-10.147v-10.926c0-5.604-4.543-10.146-10.147-10.146z"></path>
</symbol>
<symbol id="icon-always" viewBox="0 0 32 32">
<path fill="none" stroke="#2468ff" style="stroke: var(--color3, #2468ff)" stroke-linejoin="miter" stroke-linecap="butt" stroke-miterlimit="4" stroke-width="0.8101" d="M21.463 0.39h-10.927c-5.604 0-10.146 4.543-10.146 10.147v10.927c0 5.604 4.543 10.146 10.147 10.146h10.927c5.604 0 10.146-4.543 10.146-10.147v-10.926c0-5.604-4.543-10.146-10.147-10.146z"></path>
<path fill="none" stroke="#2468ff" style="stroke: var(--color3, #2468ff)" stroke-linejoin="round" stroke-linecap="round" stroke-miterlimit="4" stroke-width="0.8101" d="M8.973 14.46v-1.932c0-2.177 1.631-3.942 3.643-3.942h6.671c2.012 0 3.642 1.765 3.642 3.943v1.932M8.973 16.138v3.611c0 2.177 1.631 3.942 3.643 3.942h6.671c2.012 0 3.642-1.765 3.642-3.942v-3.611"></path>
<path fill="none" stroke="#2468ff" style="stroke: var(--color3, #2468ff)" stroke-linejoin="round" stroke-linecap="round" stroke-miterlimit="4" stroke-width="0.8101" d="M10.738 12.55l-1.765 1.911-1.765-1.911M21.165 18.048l1.764-1.909 1.765 1.909"></path>
</symbol>
<symbol id="icon-eero" viewBox="0 0 32 32">
<path d="M11.835 22.554c-0.699 0.484-1.565 0.773-2.499 0.773-0.005 0-0.009 0-0.014-0h0.001c-0.007 0-0.015 0-0.023 0-1.174 0-2.244-0.448-3.048-1.182l0.004 0.003c-0.065-0.059 0-0.137 0.068-0.093 0.873 0.515 1.924 0.82 3.046 0.82 0.855 0 1.668-0.177 2.406-0.496l-0.039 0.015c0.117-0.049 0.211 0.075 0.1 0.159z"></path>
<path d="M12.119 22.229c-0.087-0.112-0.575-0.054-0.796-0.027-0.065 0-0.075-0.049-0.017-0.093 0.39-0.273 1.028-0.195 1.101-0.103s-0.019 0.732-0.383 1.042c-0.056 0.046-0.109 0.022-0.085-0.039 0.083-0.208 0.264-0.669 0.179-0.781zM11.341 20.17v-0.269c-0-0.001-0-0.002-0-0.002 0-0.036 0.029-0.066 0.066-0.066 0.001 0 0.002 0 0.002 0h1.183c0.001-0 0.002-0 0.002-0 0.028 0 0.051 0.017 0.061 0.041l0 0c0.003 0.007 0.005 0.015 0.005 0.024 0 0.001 0 0.002-0 0.002v-0 0.229c0 0.039-0.031 0.088-0.090 0.168l-0.616 0.886c0.023-0.001 0.049-0.002 0.076-0.002 0.221 0 0.428 0.055 0.61 0.152l-0.007-0.003c0.037 0.020 0.061 0.058 0.063 0.102v0.286c0 0.039-0.044 0.085-0.087 0.061-0.182-0.097-0.399-0.154-0.628-0.154s-0.446 0.057-0.635 0.157l0.007-0.004c-0.041 0.022-0.085-0.022-0.085-0.061v-0.264c-0-0.006-0.001-0.013-0.001-0.021 0-0.060 0.016-0.116 0.045-0.164l-0.001 0.001 0.718-1.037h-0.621c-0.001 0-0.002 0-0.003 0-0.027 0-0.050-0.016-0.060-0.040l-0-0c-0.003-0.008-0.005-0.016-0.005-0.025 0-0 0-0 0-0v0zM13.693 20.182c-0.266 0-0.284 0.366-0.284 0.593s0 0.715 0.281 0.715 0.293-0.393 0.293-0.632c0.005-0.165-0.013-0.329-0.056-0.488-0.021-0.104-0.111-0.182-0.22-0.182-0.008 0-0.015 0-0.023 0.001l0.001-0 0.007-0.007zM13.693 19.799c0.536 0 0.827 0.466 0.827 1.054s-0.32 1.023-0.827 1.023c-0.507 0-0.815-0.464-0.815-1.042s0.291-1.035 0.815-1.035zM10.757 21.831c-0.012 0.008-0.027 0.012-0.042 0.012s-0.030-0.005-0.043-0.012l0 0c-0.082-0.069-0.151-0.15-0.206-0.24l-0.002-0.004c-0.131 0.164-0.331 0.267-0.556 0.267-0.014 0-0.029-0-0.043-0.001l0.002 0c-0.009 0.001-0.019 0.001-0.029 0.001-0.146 0-0.278-0.061-0.371-0.16l-0-0c-0.088-0.093-0.143-0.219-0.143-0.357 0-0.019 0.001-0.037 0.003-0.055l-0 0.002c-0-0.006-0-0.012-0-0.019 0-0.126 0.037-0.244 0.102-0.342l-0.001 0.002c0.069-0.106 0.166-0.187 0.282-0.235l0.004-0.002c0.202-0.070 0.435-0.114 0.677-0.124l0.005-0c0.002-0.020 0.003-0.044 0.003-0.068 0-0.088-0.017-0.172-0.049-0.249l0.002 0.004c-0.048-0.058-0.12-0.095-0.201-0.095-0.001 0-0.002 0-0.003 0h0c-0.006-0-0.013-0.001-0.021-0.001-0.131 0-0.241 0.091-0.27 0.214l-0 0.002c0 0.042-0.036 0.073-0.068 0.071l-0.347-0.027c-0.027-0.005-0.048-0.025-0.053-0.051l-0-0c-0.001-0.004-0.001-0.009-0.001-0.013s0-0.009 0.001-0.014l-0 0c0.080-0.427 0.465-0.556 0.81-0.556 0.197-0.007 0.391 0.057 0.546 0.18 0.175 0.166 0.158 0.388 0.158 0.627v0.569c0.001 0.126 0.051 0.247 0.138 0.337 0.012 0.012 0.019 0.029 0.019 0.048s-0.007 0.035-0.019 0.048l0-0-0.279 0.244-0.002-0.002zM10.393 20.943c0.002 0.021 0.003 0.046 0.003 0.071 0 0.115-0.026 0.224-0.074 0.321l0.002-0.004c-0.046 0.092-0.136 0.157-0.241 0.166l-0.001 0c-0.141 0-0.221-0.107-0.221-0.266 0-0.31 0.276-0.366 0.538-0.366v0.078h-0.007zM6.014 21.832c-0.012 0.008-0.027 0.012-0.042 0.012s-0.030-0.005-0.043-0.012l0 0c-0.082-0.069-0.151-0.15-0.206-0.24l-0.002-0.004c-0.134 0.163-0.337 0.267-0.563 0.267-0.012 0-0.023-0-0.035-0.001l0.002 0c-0.006 0-0.014 0-0.021 0-0.146 0-0.277-0.061-0.37-0.159l-0-0c-0.089-0.093-0.144-0.219-0.144-0.358 0-0.015 0.001-0.030 0.002-0.044l-0 0.002c-0-0.006-0-0.013-0-0.021 0-0.126 0.037-0.243 0.101-0.341l-0.001 0.002c0.069-0.106 0.169-0.189 0.286-0.236 0.202-0.070 0.435-0.114 0.677-0.125l0.005-0c0.002-0.020 0.003-0.042 0.003-0.066 0-0.089-0.018-0.174-0.051-0.251l0.002 0.004c-0.045-0.058-0.114-0.095-0.193-0.095-0.003 0-0.006 0-0.009 0h0c-0.007-0.001-0.014-0.001-0.022-0.001-0.131 0-0.24 0.091-0.268 0.214l-0 0.002c0 0.041-0.037 0.073-0.068 0.071l-0.347-0.037c-0.027-0.005-0.048-0.025-0.053-0.051l-0-0c-0.001-0.004-0.001-0.009-0.001-0.013s0-0.009 0.001-0.014l-0 0c0.080-0.427 0.466-0.556 0.81-0.556 0.009-0 0.020-0.001 0.031-0.001 0.195 0 0.373 0.068 0.513 0.182l-0.002-0.001c0.177 0.166 0.16 0.388 0.16 0.627v0.569c-0.001 0.124 0.043 0.243 0.124 0.337 0.012 0.012 0.020 0.029 0.020 0.047 0 0.009-0.002 0.018-0.005 0.026l0-0c-0.004 0.009-0.009 0.016-0.015 0.022l-0 0-0.279 0.244 0.005-0.002zM5.65 20.944c0.002 0.021 0.003 0.046 0.003 0.072 0 0.115-0.026 0.224-0.073 0.321l0.002-0.004c-0.046 0.092-0.136 0.156-0.241 0.166l-0.001 0c-0.138 0-0.218-0.107-0.218-0.266 0-0.31 0.276-0.366 0.538-0.366v0.078h-0.010zM7.071 20.78c0-0.217 0-0.514 0.242-0.514s0.221 0.305 0.221 0.514v0.991c0 0 0 0 0 0 0 0.035 0.028 0.064 0.063 0.066h0.361c0.001 0 0.002 0 0.003 0 0.027 0 0.051-0.016 0.061-0.039l0-0c0.004-0.008 0.006-0.017 0.006-0.026v-0.991c-0.001-0.021-0.002-0.046-0.002-0.070 0-0.102 0.013-0.202 0.038-0.296l-0.002 0.008c0.035-0.088 0.118-0.149 0.215-0.154l0.001-0c0.008-0.001 0.017-0.002 0.027-0.002 0.095 0 0.174 0.070 0.187 0.162l0 0.001c0.008 0.117 0.008 0.234 0 0.351v0.991c0.002 0.036 0.030 0.064 0.065 0.066h0.361c0.001 0 0.002 0 0.003 0 0.027 0 0.051-0.016 0.061-0.039l0-0c0.004-0.008 0.006-0.017 0.006-0.026v-1.181c0.007-0.044 0.011-0.095 0.011-0.147 0-0.16-0.038-0.31-0.106-0.444l0.003 0.006c-0.095-0.125-0.243-0.205-0.41-0.205-0.003 0-0.005 0-0.008 0h0c-0.004-0-0.010-0-0.015-0-0.109 0-0.211 0.034-0.294 0.092l0.002-0.001c-0.090 0.062-0.159 0.152-0.195 0.255-0.032-0.103-0.094-0.189-0.175-0.25l-0.001-0.001c-0.079-0.059-0.179-0.095-0.288-0.095-0.001 0-0.003 0-0.004 0h0c-0.108-0.005-0.214 0.027-0.301 0.090s-0.153 0.153-0.183 0.257v-0.244c-0.002-0.036-0.031-0.065-0.068-0.066h-0.313c-0.001-0-0.002-0-0.002-0-0.036 0-0.066 0.029-0.066 0.066 0 0 0 0 0 0v-0 1.862c-0 0.001-0 0.002-0 0.003 0 0.028 0.017 0.051 0.041 0.061l0 0c0.007 0.003 0.015 0.005 0.024 0.005 0.001 0 0.002-0 0.003-0h0.371c0 0 0 0 0.001 0 0.028 0 0.051-0.017 0.061-0.042l0-0c0.003-0.007 0.004-0.015 0.004-0.023 0-0.001-0-0.002-0-0.003v0-0.976l-0.010-0.007zM15.283 21.768c0 0.001 0 0.001 0 0.002 0 0.037-0.030 0.066-0.066 0.066-0.001 0-0.001 0-0.002-0h-0.361c-0 0-0 0-0 0-0.037 0-0.068-0.030-0.068-0.068 0-0 0-0 0-0.001v0-1.862c0.001-0.036 0.031-0.066 0.068-0.066h0.335c0.001-0 0.003-0 0.004-0 0.031 0 0.057 0.022 0.064 0.051l0 0v0.286c0.025-0.109 0.087-0.207 0.176-0.276s0.197-0.105 0.31-0.102c0.005-0 0.010-0 0.015-0 0.17 0 0.319 0.088 0.405 0.22l0.001 0.002c0.063 0.14 0.099 0.304 0.099 0.476 0 0.037-0.002 0.073-0.005 0.109l0-0.005v1.176c-0.004 0.033-0.032 0.059-0.065 0.059-0.001 0-0.002-0-0.003-0h-0.349c-0.033-0.001-0.059-0.026-0.063-0.058l-0-0v-1.13c0-0.378-0.146-0.388-0.228-0.388-0.094 0.005-0.173 0.064-0.208 0.145l-0.001 0.002c-0.038 0.092-0.059 0.199-0.059 0.312 0 0.016 0 0.031 0.001 0.046l-0-0.002v1.005zM1.195 21.831l-0.029-0.191c-0.085 0.075-0.183 0.133-0.289 0.173-0.092 0.039-0.2 0.062-0.312 0.063h-0c-0.009 0.001-0.020 0.001-0.030 0.001-0.148 0-0.282-0.057-0.382-0.15l0 0c-0.096-0.093-0.156-0.224-0.156-0.368 0-0.009 0-0.019 0.001-0.028l-0 0.001c-0-0.006-0-0.013-0-0.019 0-0.163 0.073-0.309 0.189-0.407l0.001-0.001c0.128-0.099 0.292-0.159 0.469-0.159 0.013 0 0.026 0 0.040 0.001l-0.002-0c0.164 0.003 0.321 0.026 0.471 0.067l-0.013-0.003v-0.244c0.001-0.012 0.002-0.025 0.002-0.039 0-0.092-0.035-0.176-0.092-0.24l0 0c-0.072-0.052-0.162-0.083-0.259-0.083-0.015 0-0.031 0.001-0.046 0.002l0.002-0c-0.23 0.003-0.448 0.045-0.652 0.119l0.014-0.004v-0.254c0.093-0.048 0.2-0.086 0.313-0.106l0.007-0.001c0.112-0.025 0.242-0.039 0.374-0.039 0.002 0 0.005 0 0.007 0h-0c0.181-0.015 0.36 0.036 0.507 0.144 0.103 0.101 0.166 0.241 0.166 0.396 0 0.015-0.001 0.030-0.002 0.045l0-0.002v1.325h-0.298zM0.65 21.605c0.191-0.008 0.365-0.077 0.503-0.189l-0.002 0.001v-0.371c-0.116-0.031-0.248-0.048-0.385-0.049h-0c-0.272 0-0.41 0.107-0.41 0.317-0 0.005-0.001 0.011-0.001 0.018 0 0.076 0.030 0.146 0.078 0.197l-0-0c0.053 0.047 0.122 0.076 0.199 0.076 0.007 0 0.013-0 0.020-0.001l-0.001 0h-0.002zM3.276 21.831v-1.24c0.009-0.102-0.020-0.203-0.080-0.285-0.055-0.056-0.132-0.091-0.217-0.091-0.009 0-0.018 0-0.027 0.001l0.001-0c-0.202 0.003-0.398 0.068-0.563 0.185v1.43h-0.361v-1.854h0.301l0.036 0.205c0.198-0.159 0.451-0.255 0.727-0.259h0.001c0.012-0.001 0.026-0.001 0.039-0.001 0.14 0 0.268 0.054 0.363 0.143l-0-0c0.087 0.097 0.14 0.226 0.14 0.368 0 0.017-0.001 0.033-0.002 0.049l0-0.002v1.362l-0.359-0.010zM18.608 21.761c-0.136 0.069-0.296 0.11-0.465 0.11-0.007 0-0.014-0-0.021-0h0.001c-0.017 0.001-0.037 0.002-0.056 0.002-0.233 0-0.445-0.094-0.599-0.246l0 0c-0.144-0.198-0.231-0.447-0.231-0.716s0.087-0.517 0.233-0.72l-0.002 0.004c0.155-0.152 0.368-0.246 0.603-0.246 0.021 0 0.041 0.001 0.061 0.002l-0.003-0c0.002 0 0.004-0 0.006-0 0.164 0 0.32 0.038 0.458 0.105l-0.006-0.003v0.259c-0.119-0.044-0.257-0.071-0.4-0.076l-0.002-0c-0.016-0.002-0.034-0.003-0.052-0.003-0.151 0-0.287 0.061-0.386 0.159l0-0c-0.085 0.118-0.136 0.266-0.136 0.426 0 0.022 0.001 0.043 0.003 0.065l-0-0.003v0.046c-0.014 0.174 0.034 0.347 0.136 0.488 0.098 0.098 0.233 0.158 0.382 0.158 0.017 0 0.033-0.001 0.049-0.002l-0.002 0c0.154-0.003 0.302-0.029 0.439-0.076l-0.010 0.003v0.263zM19.738 21.885c-0.014 0.001-0.031 0.001-0.048 0.001-0.236 0-0.449-0.1-0.599-0.259l-0-0c-0.147-0.2-0.236-0.451-0.236-0.722s0.088-0.523 0.238-0.726l-0.002 0.003c0.168-0.16 0.396-0.258 0.646-0.258s0.478 0.098 0.647 0.259l-0-0c0.147 0.2 0.236 0.451 0.236 0.722s-0.088 0.523-0.238 0.726l0.002-0.003c-0.15 0.16-0.363 0.26-0.599 0.26-0.016 0-0.032-0-0.048-0.001l0.002 0zM19.738 21.592c0.339 0 0.512-0.229 0.512-0.691s-0.172-0.685-0.511-0.685c-0.34 0-0.512 0.227-0.512 0.685s0.17 0.691 0.511 0.691zM23.411 21.831v-1.259c0.001-0.010 0.001-0.022 0.001-0.033 0-0.087-0.026-0.169-0.070-0.237l0.001 0.002c-0.048-0.055-0.118-0.089-0.197-0.089-0.008 0-0.015 0-0.023 0.001l0.001-0c-0.199 0.004-0.383 0.064-0.537 0.166l0.004-0.002c0.002 0.019 0.002 0.037 0 0.056v1.396h-0.359v-1.259c0.001-0.009 0.001-0.019 0.001-0.029 0-0.089-0.026-0.171-0.070-0.241l0.001 0.002c-0.048-0.055-0.118-0.089-0.196-0.089-0.008 0-0.015 0-0.023 0.001l0.001-0c-0.198 0.002-0.381 0.061-0.534 0.163l0.004-0.002v1.464h-0.359v-1.854h0.301l0.037 0.188c0.187-0.143 0.421-0.233 0.676-0.244l0.003-0c0.016-0.002 0.034-0.003 0.053-0.003 0.178 0 0.332 0.103 0.406 0.252l0.001 0.003c0.198-0.157 0.451-0.254 0.727-0.258h0.001c0.011-0.001 0.023-0.001 0.035-0.001 0.136 0 0.26 0.054 0.351 0.143l-0-0c0.094 0.117 0.138 0.266 0.123 0.415v1.362l-0.359-0.010zM24.301 22.583v-2.606h0.301l0.034 0.191c0.16-0.151 0.376-0.243 0.614-0.244h0c0.011-0.001 0.025-0.001 0.038-0.001 0.208 0 0.394 0.095 0.516 0.244l0.001 0.001c0.145 0.203 0.217 0.45 0.204 0.7 0.001 0.020 0.002 0.043 0.002 0.067 0 0.25-0.082 0.481-0.22 0.668l0.002-0.003c-0.128 0.165-0.326 0.271-0.549 0.271-0.007 0-0.015-0-0.022-0l0.001 0c-0.005 0-0.010 0-0.016 0-0.211 0-0.404-0.082-0.547-0.215l0 0v0.927h-0.359zM25.148 20.216c-0.184 0.002-0.352 0.065-0.487 0.17l0.002-0.001v1.017c0.138 0.111 0.308 0.172 0.485 0.176 0.335 0 0.499-0.227 0.499-0.678 0.002-0.021 0.003-0.044 0.003-0.069 0-0.165-0.046-0.319-0.126-0.45l0.002 0.004c-0.079-0.104-0.202-0.17-0.341-0.17-0.013 0-0.026 0.001-0.039 0.002l0.002-0zM27.533 21.831l-0.029-0.19c-0.085 0.075-0.183 0.133-0.289 0.173-0.093 0.039-0.201 0.062-0.315 0.063h-0.001c-0.009 0-0.019 0.001-0.029 0.001-0.148 0-0.283-0.057-0.384-0.15l0 0c-0.095-0.094-0.154-0.225-0.154-0.369 0-0.009 0-0.019 0.001-0.028l-0 0.001c-0-0.006-0-0.014-0-0.022 0-0.162 0.072-0.307 0.186-0.405l0.001-0.001c0.129-0.099 0.292-0.16 0.47-0.16 0.014 0 0.027 0 0.041 0.001l-0.002-0c0.164 0.003 0.321 0.026 0.471 0.067l-0.013-0.003v-0.244c0.001-0.011 0.002-0.023 0.002-0.035 0-0.093-0.035-0.178-0.092-0.243l0 0c-0.072-0.052-0.162-0.083-0.259-0.083-0.015 0-0.031 0.001-0.046 0.002l0.002-0c-0.23 0.003-0.45 0.045-0.654 0.119l0.014-0.004v-0.254c0.093-0.048 0.2-0.086 0.313-0.106l0.007-0.001c0.113-0.025 0.243-0.039 0.376-0.039 0.002 0 0.003 0 0.005 0h-0c0.018-0.002 0.039-0.002 0.061-0.002 0.169 0 0.324 0.055 0.451 0.148l-0.002-0.001c0.101 0.1 0.164 0.24 0.164 0.394 0 0.016-0.001 0.032-0.002 0.048l0-0.002v1.325h-0.296zM26.988 21.605c0.191-0.008 0.365-0.077 0.503-0.189l-0.002 0.001v-0.371c-0.116-0.031-0.248-0.048-0.385-0.049h-0c-0.274 0-0.41 0.107-0.41 0.317-0 0.006-0.001 0.013-0.001 0.020 0 0.075 0.029 0.143 0.076 0.194l-0-0c0.060 0.053 0.138 0.080 0.218 0.076zM29.609 21.831v-1.24c0.001-0.010 0.001-0.022 0.001-0.033 0-0.094-0.030-0.182-0.080-0.253l0.001 0.001c-0.055-0.056-0.132-0.091-0.217-0.091-0.009 0-0.018 0-0.027 0.001l0.001-0c-0.212 0.003-0.406 0.072-0.566 0.187l0.003-0.002v1.43h-0.359v-1.854h0.301l0.036 0.205c0.198-0.159 0.451-0.256 0.727-0.259h0.001c0.012-0.001 0.026-0.002 0.040-0.002 0.141 0 0.269 0.054 0.365 0.143l-0-0c0.097 0.112 0.145 0.257 0.136 0.405v1.362h-0.364zM31.99 19.977l-0.839 2.179c-0.044 0.138-0.123 0.262-0.228 0.361-0.096 0.076-0.215 0.115-0.337 0.11-0.002 0-0.004 0-0.006 0-0.099 0-0.193-0.019-0.28-0.053l0.005 0.002v-0.259c0.067 0.017 0.136 0.025 0.206 0.025 0.005 0 0.012 0 0.018 0 0.074 0 0.142-0.026 0.196-0.069l-0.001 0c0.066-0.069 0.113-0.153 0.138-0.244l0.071-0.185-0.742-1.872h0.386l0.531 1.518 0.512-1.518h0.371v0.005zM7.207 12.484h-6.161v-0.034c0.022-0.218 0.072-0.432 0.15-0.637 0.269-0.776 0.788-1.408 1.457-1.816l0.015-0.009c0.412-0.239 0.906-0.38 1.433-0.38 0.035 0 0.069 0.001 0.104 0.002l-0.005-0c0.403-0.002 0.802 0.075 1.176 0.227 0.371 0.151 0.689 0.358 0.959 0.616l-0.001-0.001c0.261 0.251 0.476 0.549 0.63 0.88l0.008 0.018c0.153 0.32 0.243 0.696 0.243 1.092 0 0.002 0 0.004 0 0.006v-0l-0.007 0.037zM4.255 8.673c-0.017-0-0.036-0-0.056-0-0.598 0-1.168 0.125-1.683 0.35l0.027-0.011c-0.526 0.235-0.974 0.555-1.346 0.947l-0.002 0.002c-0.374 0.397-0.674 0.868-0.875 1.388l-0.010 0.029c-0.197 0.515-0.31 1.11-0.31 1.732 0 0.017 0 0.035 0 0.052l-0-0.003c-0 0.019-0 0.042-0 0.064 0 0.633 0.112 1.24 0.318 1.802l-0.012-0.036c0.203 0.554 0.5 1.029 0.875 1.43l-0.002-0.002c0.375 0.395 0.829 0.711 1.337 0.925l0.026 0.010c0.506 0.212 1.093 0.334 1.709 0.334 0.021 0 0.043-0 0.064-0l-0.003 0c0.016 0 0.036 0 0.055 0 0.738 0 1.439-0.157 2.072-0.44l-0.032 0.013c0.656-0.31 1.192-0.782 1.57-1.366l0.009-0.015-0.764-0.647c-0.298 0.47-0.709 0.845-1.195 1.093l-0.017 0.008c-0.484 0.259-1.058 0.412-1.667 0.415h-0.001c-0.565 0.023-1.127-0.108-1.625-0.378-0.4-0.236-0.734-0.54-0.998-0.898l-0.006-0.009c-0.227-0.308-0.405-0.668-0.511-1.058l-0.005-0.023c-0.079-0.272-0.13-0.585-0.14-0.909l-0-0.006v-0.034h7.196v-0.759c-0.004-0.527-0.101-1.029-0.277-1.494l0.010 0.030c-0.18-0.498-0.44-0.926-0.767-1.292l0.003 0.004c-0.342-0.377-0.755-0.682-1.218-0.898l-0.023-0.010c-0.484-0.216-1.049-0.342-1.643-0.342-0.029 0-0.057 0-0.086 0.001l0.004-0v0.002zM16.714 12.484h-6.159v-0.034c0.022-0.218 0.072-0.432 0.15-0.637 0.127-0.365 0.299-0.681 0.513-0.963l-0.006 0.009c0.265-0.349 0.587-0.639 0.955-0.86l0.015-0.008c0.411-0.239 0.904-0.38 1.43-0.38 0.036 0 0.072 0.001 0.108 0.002l-0.005-0c0.402-0.002 0.801 0.075 1.174 0.227 0.376 0.149 0.698 0.357 0.971 0.616l-0.001-0.001c0.253 0.252 0.459 0.549 0.606 0.879l0.007 0.018c0.159 0.344 0.242 0.719 0.242 1.098v0.034zM13.765 8.673c-0.589-0.008-1.172 0.108-1.714 0.339-0.524 0.235-0.971 0.554-1.342 0.945l-0.002 0.002c-0.374 0.397-0.674 0.868-0.875 1.388l-0.010 0.029c-0.198 0.514-0.313 1.108-0.313 1.73 0 0.019 0 0.038 0 0.057l-0-0.003c-0 0.018-0 0.040-0 0.061 0 0.634 0.111 1.242 0.315 1.805l-0.012-0.037c0.205 0.554 0.502 1.029 0.878 1.43l-0.002-0.002c0.375 0.395 0.829 0.711 1.337 0.925l0.026 0.010c0.505 0.212 1.092 0.334 1.708 0.334 0.022 0 0.044-0 0.066-0l-0.003 0c0.016 0 0.036 0 0.055 0 0.738 0 1.439-0.157 2.072-0.44l-0.032 0.013c0.654-0.31 1.188-0.783 1.565-1.366l0.009-0.015-0.764-0.647c-0.3 0.473-0.715 0.848-1.207 1.093l-0.017 0.008c-0.484 0.259-1.058 0.412-1.667 0.415h-0.001c-0.566 0.023-1.127-0.108-1.625-0.378-0.4-0.236-0.734-0.54-0.997-0.898l-0.006-0.009c-0.226-0.308-0.401-0.668-0.504-1.059l-0.005-0.022c-0.079-0.272-0.13-0.585-0.14-0.909l-0-0.006v-0.034h7.206v-0.759c-0.002-0.525-0.096-1.028-0.267-1.494l0.010 0.030c-0.18-0.498-0.44-0.926-0.767-1.292l0.003 0.004c-0.342-0.376-0.754-0.681-1.216-0.898l-0.024-0.010c-0.485-0.216-1.051-0.342-1.646-0.342-0.027 0-0.055 0-0.082 0.001l0.004-0-0.012 0.002zM27.247 16.747c-0.49 0.006-0.975-0.090-1.426-0.283-0.41-0.179-0.781-0.44-1.089-0.766-0.294-0.316-0.526-0.693-0.677-1.109l-0.007-0.023c-0.149-0.413-0.235-0.889-0.235-1.386s0.086-0.973 0.244-1.415l-0.009 0.029c0.158-0.44 0.391-0.818 0.686-1.137l-0.002 0.002c0.302-0.318 0.663-0.576 1.067-0.755l0.021-0.008c0.421-0.179 0.911-0.283 1.426-0.283s1.004 0.104 1.45 0.292l-0.024-0.009c0.426 0.184 0.787 0.441 1.085 0.759l0.002 0.002c0.297 0.317 0.531 0.696 0.682 1.115l0.007 0.023c0.313 0.897 0.313 1.875 0 2.772-0.159 0.439-0.392 0.816-0.688 1.134l0.002-0.002c-0.301 0.319-0.663 0.578-1.068 0.758l-0.021 0.008c-0.45 0.193-0.936 0.29-1.426 0.283zM27.247 8.673c-0.009-0-0.019-0-0.030-0-0.639 0-1.249 0.125-1.806 0.351l0.032-0.012c-0.554 0.22-1.027 0.537-1.418 0.934l-0 0c-0.387 0.399-0.699 0.873-0.911 1.398l-0.010 0.029c-0.208 0.519-0.328 1.12-0.328 1.75 0 0.020 0 0.040 0 0.059l-0-0.003c-0 0.015-0 0.032-0 0.049 0 0.634 0.122 1.239 0.344 1.793l-0.012-0.033c0.222 0.554 0.534 1.029 0.922 1.429l-0.001-0.001c0.392 0.395 0.862 0.712 1.386 0.925l0.028 0.010c0.522 0.212 1.127 0.334 1.762 0.334 0.016 0 0.031-0 0.047-0l-0.002 0c0.015 0 0.032 0 0.050 0 0.63 0 1.231-0.123 1.781-0.346l-0.032 0.011c0.553-0.223 1.025-0.539 1.419-0.935l0-0c0.394-0.396 0.709-0.871 0.921-1.398l0.010-0.028c0.21-0.537 0.332-1.16 0.332-1.811s-0.122-1.273-0.344-1.845l0.012 0.035c-0.224-0.555-0.539-1.030-0.931-1.428l0 0.001c-0.395-0.393-0.867-0.707-1.393-0.919l-0.028-0.010c-0.518-0.212-1.12-0.335-1.75-0.335-0.017 0-0.034 0-0.051 0l0.003-0v-0.005zM19.011 17.462h1.045v-4.675c-0.003-0.405 0.053-0.809 0.167-1.198 0.113-0.376 0.291-0.701 0.523-0.98l-0.004 0.005c0.237-0.28 0.533-0.502 0.87-0.648l0.015-0.006c0.39-0.165 0.81-0.248 1.234-0.244v-0.976c-1.212 0.025-2.17 0.4-2.832 1.113-1.089 1.169-1.018 2.867-1.018 2.884v4.726z"></path>
</symbol>
<symbol id="icon-unlock1" viewBox="0 0 32 32">
<path stroke-linejoin="miter" stroke-linecap="butt" stroke-miterlimit="4" stroke-width="0.4051" d="M21.463 0.642h-10.927c-5.604 0-10.146 4.488-10.146 10.024v10.795c0 5.536 4.543 10.024 10.147 10.024h10.927c5.604 0 10.146-4.488 10.146-10.024v-10.795c0-5.536-4.543-10.024-10.147-10.024z"></path>
<path fill="none" stroke="#fff" style="stroke: var(--color4, #fff)" stroke-linejoin="round" stroke-linecap="round" stroke-miterlimit="4" stroke-width="0.638" d="M12.594 21.256h6.493M13.521 22.876h4.638M17.231 24.495h-2.782M19.059 19.637c0-0.871 0.218-1.729 0.636-2.498l1.373-2.537c0.008-0.015 0.017-0.029 0.024-0.044l0.008-0.017h-0.003c0.275-0.564 0.436-1.228 0.437-1.929v-0c0-2.778-2.549-5.030-5.694-5.030s-5.694 2.252-5.694 5.030c0 0.685 0.157 1.335 0.437 1.929h-0.002l0.008 0.016c0.007 0.015 0.016 0.030 0.025 0.045l1.372 2.536c0.399 0.722 0.635 1.583 0.635 2.499v0"></path>
</symbol>
<symbol id="icon-guarantuee" viewBox="0 0 32 32">
<path stroke-linejoin="round" stroke-linecap="round" stroke-miterlimit="4" stroke-width="1.1111" d="M28.804 11.703c0 6.172-5.941 11.177-13.272 11.177-7.329 0-13.271-5.004-13.271-11.177s5.942-11.177 13.271-11.177c7.331 0 13.272 5.004 13.272 11.177z"></path>
<path stroke-linejoin="round" stroke-linecap="round" stroke-miterlimit="4" stroke-width="1.1111" d="M12.199 25.807l-3.381 5.597-2.027-5.157-6.165 1.694 3.38-5.595M18.866 25.807l3.382 5.597 2.027-5.157 6.166 1.694-3.381-5.595"></path>
</symbol>
<symbol id="icon-support" viewBox="0 0 32 32">
<path stroke-linejoin="round" stroke-linecap="round" stroke-miterlimit="4" stroke-width="1.1111" d="M20.6 5.162c-0 2.56-2.076 4.635-4.636 4.635s-4.636-2.075-4.636-4.636c0-0 0-0 0-0v0c0-2.56 2.075-4.636 4.636-4.636s4.636 2.075 4.636 4.636v0z"></path>
<path stroke-linejoin="round" stroke-linecap="round" stroke-miterlimit="4" stroke-width="1.1111" d="M0.526 31.177h30.878M23.436 28.371v-5.837c0-0.852-0.692-1.544-1.544-1.544h-11.854c-0.852 0-1.543 0.692-1.543 1.544v5.836"></path>
<path stroke-linejoin="round" stroke-linecap="round" stroke-miterlimit="4" stroke-width="1.1111" d="M27.664 28.338c0.529-0.608 0.852-1.408 0.852-2.284 0-0.462-0.090-0.903-0.253-1.306l0.008 0.023-2.708-6.849c-0.93-2.306-3.149-3.904-5.742-3.905h-7.712c-2.593 0-4.813 1.598-5.728 3.863l-0.015 0.041-2.708 6.849c-0.155 0.38-0.244 0.821-0.244 1.282 0 0.876 0.323 1.676 0.856 2.289l-0.004-0.004"></path>
</symbol>
<symbol id="icon-shipping" viewBox="0 0 32 32">
<path fill="none" stroke="#231f20" style="stroke: var(--color5, #231f20)" stroke-linejoin="round" stroke-linecap="round" stroke-miterlimit="4" stroke-width="1.1111" d="M1.228 22.308v-21.538h22.274c0.625 0 1.175 0.588 1.351 1.445l1.796 10.794 3.327 1.733c0.447 0.355 0.725 1.028 0.725 1.76v5.805M15.964 22.308v-17.436M27.595 26.409h3.809M11.352 26.409h9.227M0.526 26.409h3.808"></path>
<path fill="none" stroke="#231f20" style="stroke: var(--color5, #231f20)" stroke-linejoin="round" stroke-linecap="round" stroke-miterlimit="4" stroke-width="1.1111" d="M11.353 26.41c0 2.832-1.571 5.128-3.508 5.128s-3.509-2.296-3.509-5.128 1.572-5.128 3.509-5.128c1.938 0 3.508 2.296 3.508 5.128z"></path>
<path d="M9.16 26.41c0 1.062-0.589 1.924-1.316 1.924s-1.316-0.862-1.316-1.924c0-1.061 0.589-1.923 1.316-1.923s1.316 0.862 1.316 1.923z"></path>
<path fill="none" stroke="#231f20" style="stroke: var(--color5, #231f20)" stroke-linejoin="round" stroke-linecap="round" stroke-miterlimit="4" stroke-width="1.1111" d="M27.595 26.41c0 2.832-1.572 5.128-3.508 5.128s-3.509-2.296-3.509-5.128 1.572-5.128 3.509-5.128c1.938 0 3.508 2.296 3.508 5.128z"></path>
<path d="M25.402 26.41c0 1.062-0.589 1.924-1.316 1.924s-1.316-0.862-1.316-1.924c0-1.061 0.589-1.923 1.316-1.923s1.316 0.862 1.316 1.923z"></path>
<path fill="none" stroke="#231f20" style="stroke: var(--color5, #231f20)" stroke-linejoin="round" stroke-linecap="round" stroke-miterlimit="4" stroke-width="1.1111" d="M26.651 13.008h-6.812v-8.137h5.457"></path>
</symbol>
<symbol id="icon-warranty" viewBox="0 0 32 32">
<path stroke-linejoin="round" stroke-linecap="round" stroke-miterlimit="4" stroke-width="1.1111" d="M4.036 3.68h-1.781c-0.955 0-1.729 0.886-1.729 1.98v0.004c0 3.949 1.688 7.591 4.31 9.968M27.895 3.68h1.78c0.954 0 1.728 0.886 1.728 1.98v0.004c0 3.949-1.688 7.591-4.31 9.968"></path>
<path stroke-linejoin="round" stroke-linecap="round" stroke-miterlimit="4" stroke-width="1.1111" d="M8.26 30.185h15.412M15.964 21.297v8.889"></path>
</symbol>
<symbol id="icon-facebook" viewBox="0 0 32 32">
<path fill="#fff" style="fill: var(--color4, #fff)" d="M17.092 32h-15.326c-0.976 0-1.766-0.791-1.766-1.766v0-28.467c0-0.977 0.79-1.766 1.766-1.766h28.467c0.977 0 1.766 0.79 1.766 1.766v28.467c0 0.977-0.79 1.766-1.766 1.766h-8.154v-12.393h4.16l0.622-4.829h-4.782v-3.083c0-1.399 0.388-2.352 2.393-2.352l2.558-0.001v-4.32c-0.443-0.059-1.961-0.19-3.727-0.19-3.687 0-6.211 2.251-6.211 6.384v3.562h-4.171v4.829h4.171v12.393z"></path>
</symbol>
<symbol id="icon-twitter" viewBox="0 0 32 32">
<path fill="#fff" style="fill: var(--color4, #fff)" d="M32 5.824c-1.175 0.535-2.443 0.897-3.77 1.059 1.364-0.852 2.386-2.145 2.873-3.675l0.013-0.048c-1.199 0.742-2.596 1.308-4.087 1.616l-0.084 0.014c-1.188-1.306-2.894-2.123-4.791-2.125h-0c-3.623 0-6.563 3.014-6.563 6.731 0 0.529 0.057 1.041 0.169 1.534-5.456-0.281-10.293-2.958-13.533-7.036-0.559 0.971-0.889 2.134-0.889 3.375 0 0.004 0 0.009 0 0.013v-0.001c-0 0.009-0 0.019-0 0.030 0 2.301 1.147 4.334 2.9 5.559l0.022 0.015c-1.1-0.037-2.12-0.344-3.007-0.856l0.031 0.017v0.082c0 3.264 2.263 5.984 5.269 6.602-0.511 0.15-1.098 0.237-1.706 0.237-0.009 0-0.017-0-0.026-0h0.001c-0.422 0-0.836-0.041-1.236-0.119 0.836 2.673 3.259 4.621 6.133 4.672-2.207 1.796-5.052 2.883-8.151 2.883-0.001 0-0.002 0-0.003 0h0c-0.53 0-1.054-0.030-1.567-0.092 2.833 1.893 6.317 3.021 10.064 3.022h0c12.077 0 18.679-10.256 18.679-19.153 0-0.292-0.006-0.586-0.017-0.873 1.283-0.949 2.397-2.133 3.274-3.484z"></path>
</symbol>
<symbol id="icon-linkedin" viewBox="0 0 32 32">
<path fill="#fff" style="fill: var(--color4, #fff)" d="M3.766 8.311h-0.044c-2.259 0-3.723-1.511-3.723-3.426 0-1.952 1.507-3.431 3.81-3.431 2.301 0 3.716 1.475 3.761 3.426 0 1.915-1.46 3.431-3.805 3.431zM32 30.545h-7.072v-10.226c0-2.677-1.107-4.505-3.539-4.505-1.861 0-2.896 1.233-3.377 2.421-0.16 0.375-0.157 0.881-0.154 1.403v10.907h-7.006s0.091-18.115 0-19.762h7.007v3.102c0.414-1.357 2.653-3.292 6.225-3.292 4.433 0 7.916 2.843 7.916 8.963v10.989zM7.044 10.783h-6.237v19.762h6.237v-19.762z"></path>
</symbol>
<symbol id="icon-pinterest" viewBox="0 0 32 32">
<path fill="#fff" style="fill: var(--color4, #fff)" d="M16 0c-8.834 0-16 7.163-16 16 0 6.55 3.94 12.181 9.579 14.655-0.045-1.116-0.007-2.46 0.277-3.675 0.308-1.298 2.059-8.718 2.059-8.718s-0.511-1.022-0.511-2.532c0-2.371 1.376-4.142 3.086-4.142 1.455 0 2.159 1.093 2.159 2.403 0 1.461-0.933 3.65-1.413 5.677-0.401 1.699 0.85 3.083 2.525 3.083 3.031 0 5.073-3.893 5.073-8.508 0-3.505-2.362-6.13-6.657-6.13-4.853 0-7.876 3.618-7.876 7.66 0 1.397 0.41 2.379 1.054 3.139 0.297 0.352 0.337 0.491 0.229 0.894-0.075 0.291-0.252 1.003-0.325 1.283-0.107 0.404-0.435 0.551-0.8 0.4-2.237-0.912-3.278-3.36-3.278-6.112 0-4.544 3.834-9.998 11.435-9.998 6.11 0 10.13 4.423 10.13 9.167 0 6.277-3.488 10.965-8.635 10.965-1.725 0-3.35-0.932-3.908-1.991 0 0-0.928 3.685-1.124 4.397-0.339 1.233-1.003 2.467-1.611 3.426 1.44 0.426 2.959 0.657 4.533 0.657 8.837 0 16-7.163 16-16s-7.163-16-16-16z"></path>
</symbol>
<symbol id="icon-instagram" viewBox="0 0 32 32">
<path fill="#fff" style="fill: var(--color4, #fff)" d="M16 0c-4.346 0-4.891 0.018-6.596 0.096-1.703 0.078-2.866 0.349-3.885 0.745-1.109 0.424-2.054 1.052-2.832 1.844l-0.001 0.001c-0.793 0.779-1.421 1.724-1.827 2.779l-0.018 0.054c-0.396 1.020-0.667 2.182-0.745 3.884-0.078 1.707-0.096 2.253-0.096 6.597s0.018 4.891 0.096 6.596c0.078 1.703 0.349 2.867 0.745 3.885 0.424 1.109 1.052 2.054 1.844 2.832l0.001 0.001c0.779 0.793 1.724 1.421 2.779 1.827l0.054 0.018c1.019 0.396 2.181 0.667 3.884 0.745 1.707 0.078 2.252 0.096 6.597 0.096s4.891-0.018 6.596-0.096c1.703-0.078 2.867-0.349 3.885-0.743 1.109-0.424 2.054-1.052 2.832-1.844l0.001-0.001c0.793-0.78 1.421-1.725 1.827-2.78l0.018-0.054c0.396-1.018 0.667-2.181 0.745-3.885 0.078-1.707 0.096-2.251 0.096-6.596s-0.018-4.891-0.096-6.596c-0.078-1.703-0.349-2.866-0.743-3.885-0.424-1.109-1.052-2.054-1.844-2.832l-0.001-0.001c-0.78-0.793-1.725-1.421-2.78-1.827l-0.054-0.018c-1.018-0.396-2.182-0.667-3.885-0.745-1.707-0.078-2.25-0.096-6.596-0.096zM16 2.883c4.272 0 4.779 0.016 6.465 0.093 1.561 0.071 2.407 0.332 2.972 0.551 0.747 0.29 1.28 0.637 1.839 1.197 0.56 0.56 0.907 1.092 1.197 1.839 0.22 0.564 0.48 1.411 0.551 2.972 0.077 1.686 0.093 2.193 0.093 6.465s-0.016 4.779-0.093 6.465c-0.071 1.561-0.332 2.407-0.551 2.972-0.29 0.747-0.637 1.28-1.197 1.839-0.503 0.518-1.118 0.926-1.805 1.186l-0.034 0.011c-0.564 0.22-1.411 0.48-2.972 0.551-1.686 0.077-2.192 0.093-6.465 0.093-4.272 0-4.779-0.016-6.465-0.093-1.561-0.071-2.407-0.332-2.972-0.551-0.747-0.29-1.28-0.637-1.839-1.197-0.518-0.504-0.926-1.118-1.186-1.805l-0.011-0.034c-0.22-0.564-0.48-1.411-0.551-2.972-0.077-1.686-0.093-2.193-0.093-6.465s0.016-4.779 0.093-6.465c0.071-1.561 0.332-2.407 0.551-2.972 0.29-0.747 0.637-1.28 1.197-1.839 0.504-0.518 1.118-0.926 1.805-1.186l0.034-0.011c0.564-0.22 1.411-0.48 2.972-0.551 1.686-0.077 2.193-0.093 6.465-0.093zM7.783 16c0-4.538 3.679-8.217 8.217-8.217s8.217 3.679 8.217 8.217v0c0 4.538-3.679 8.217-8.217 8.217s-8.217-3.679-8.217-8.217v0zM16 21.333c-2.946 0-5.333-2.388-5.333-5.333s2.388-5.333 5.333-5.333v0c2.946 0 5.333 2.388 5.333 5.333s-2.388 5.333-5.333 5.333v0zM24.541 9.379c1.060 0 1.92-0.86 1.92-1.92s-0.86-1.92-1.92-1.92v0c-1.060 0-1.92 0.86-1.92 1.92s0.86 1.92 1.92 1.92v0z"></path>
</symbol>
<symbol id="icon-click" viewBox="0 0 32 32">
<path fill="none" stroke="#2468ff" style="stroke: var(--color3, #2468ff)" stroke-linejoin="round" stroke-linecap="round" stroke-miterlimit="4" stroke-width="0.8101" d="M23.668 19.064c0-1.86-1.506-3.369-3.363-3.369h-3.671l-0.509-6.595c-0.051-0.594-0.546-1.057-1.15-1.057-0.635 0-1.149 0.512-1.154 1.146v0l0.010 13.244-2.341-2.050c-0.435-0.383-1.009-0.616-1.637-0.616-0.594 0-1.14 0.209-1.567 0.557l0.005-0.004s4.103 5.015 7.038 6.406"></path>
<path fill="none" stroke="#2468ff" style="stroke: var(--color3, #2468ff)" stroke-linejoin="round" stroke-linecap="round" stroke-miterlimit="4" stroke-width="0.8101" d="M11.106 11.369v-3.597c0-0 0-0.001 0-0.001 0-1.221 0.989-2.21 2.209-2.211h3.314c1.22 0.001 2.209 0.99 2.209 2.21 0 0.001 0 0.002 0 0.003v-0 3.597"></path>
<path fill="none" stroke="#2468ff" style="stroke: var(--color3, #2468ff)" stroke-linejoin="miter" stroke-linecap="butt" stroke-miterlimit="4" stroke-width="0.8101" d="M21.463 0.39h-10.927c-5.604 0-10.146 4.543-10.146 10.147v10.927c0 5.604 4.543 10.146 10.147 10.146h10.927c5.604 0 10.146-4.543 10.146-10.147v-10.926c0-5.604-4.543-10.146-10.147-10.146z"></path>
</symbol>
<symbol id="icon-unlock3" viewBox="0 0 32 32">
<path fill="none" stroke="#fefefe" style="stroke: var(--color6, #fefefe)" stroke-linejoin="miter" stroke-linecap="butt" stroke-miterlimit="4" stroke-width="0.6076" d="M10.537 0.39h10.927c5.604 0 10.146 4.543 10.146 10.147v10.927c0 5.603-4.543 10.146-10.147 10.146h-10.926c-5.604 0-10.147-4.544-10.147-10.147v-10.926c0-5.604 4.544-10.147 10.147-10.147z"></path>
<path fill="none" stroke="#fefefe" style="stroke: var(--color6, #fefefe)" stroke-linejoin="miter" stroke-linecap="butt" stroke-miterlimit="4" stroke-width="0.6076" d="M18.721 10.268c-0.782-0.47-1.725-0.749-2.734-0.749-0.003 0-0.005 0-0.008 0h0c-0.994 0-1.926 0.269-2.725 0.738M20.725 8.408c-1.311-0.97-2.959-1.553-4.744-1.553-0.004 0-0.009 0-0.013 0h0.001c-0.004 0-0.008 0-0.013 0-1.768 0-3.402 0.572-4.728 1.541l0.023-0.016"></path>
<path fill="none" stroke="#fefefe" style="stroke: var(--color6, #fefefe)" stroke-linejoin="miter" stroke-linecap="butt" stroke-miterlimit="4" stroke-width="0.6076" d="M18.035 24.755h-4.071c-2.115 0-3.829-1.715-3.829-3.829v-4.071c0-2.114 1.714-3.829 3.829-3.829h4.071c2.115 0 3.829 1.714 3.829 3.829v0 4.071c0 0 0 0 0 0 0 2.115-1.714 3.829-3.829 3.829-0 0-0 0-0 0h0z"></path>
<path fill="none" stroke="#fefefe" style="stroke: var(--color6, #fefefe)" stroke-linejoin="miter" stroke-linecap="butt" stroke-miterlimit="4" stroke-width="0.6076" d="M14.287 18.89c0-0 0-0 0-0 0-0.946 0.767-1.713 1.713-1.713s1.713 0.767 1.713 1.713v0c0 0 0 0 0 0 0 0.946-0.767 1.713-1.713 1.713s-1.713-0.767-1.713-1.713v0z"></path>
</symbol>
<symbol id="icon-unlock2" viewBox="0 0 32 32">
<path fill="none" stroke="#fff" style="stroke: var(--color4, #fff)" stroke-linejoin="miter" stroke-linecap="butt" stroke-miterlimit="4" stroke-width="0.4051" d="M21.463 0.44h-10.927c-5.604 0-10.146 4.488-10.146 10.024v10.795c0 5.536 4.543 10.024 10.147 10.024h10.927c5.604 0 10.146-4.488 10.146-10.024v-10.795c0-5.536-4.543-10.024-10.147-10.024z"></path>
<path fill="none" stroke="#fff" style="stroke: var(--color4, #fff)" stroke-linejoin="round" stroke-linecap="round" stroke-miterlimit="4" stroke-width="0.638" d="M22.104 21.892c-3.36 3.32-8.809 3.32-12.169 0-1.556-1.53-2.521-3.658-2.521-6.011s0.964-4.481 2.519-6.010l0.001-0.001c3.36-3.321 8.809-3.321 12.169 0 1.556 1.53 2.52 3.658 2.52 6.011s-0.964 4.481-2.519 6.010l-0.001 0.001z"></path>
<path fill="none" stroke="#fff" style="stroke: var(--color4, #fff)" stroke-linejoin="round" stroke-linecap="round" stroke-miterlimit="4" stroke-width="0.638" d="M18.627 20.003c-0.334 0.334-0.731 0.604-1.173 0.791l-0.024 0.009c-0.422 0.18-0.913 0.285-1.429 0.285-0.507 0-0.99-0.101-1.43-0.284l0.025 0.009c-0.467-0.193-0.867-0.461-1.203-0.793l0 0c-0.335-0.331-0.606-0.725-0.793-1.164l-0.009-0.024c-0.176-0.41-0.278-0.887-0.278-1.388 0-0.51 0.106-0.996 0.297-1.435l-0.009 0.023c0.199-0.461 0.473-0.854 0.809-1.182l0.001-0.001c0.668-0.649 1.58-1.049 2.586-1.049 0.006 0 0.011 0 0.017 0h-0.001c1.012 0.002 1.928 0.409 2.596 1.067l-0-0c0.663 0.653 1.075 1.56 1.080 2.563v0.001c0 0.003 0 0.006 0 0.009 0 1.001-0.406 1.907-1.062 2.562l-0 0z"></path>
<path fill="none" stroke="#fff" style="stroke: var(--color4, #fff)" stroke-linejoin="round" stroke-linecap="round" stroke-miterlimit="4" stroke-width="0.638" d="M16.019 16.213v2.429"></path>
<path fill="none" stroke="#fff" style="stroke: var(--color4, #fff)" stroke-linejoin="round" stroke-linecap="round" stroke-miterlimit="4" stroke-width="0.638" d="M16.889 11.419c-0.222 0.216-0.526 0.348-0.861 0.348-0.002 0-0.005 0-0.007-0h0c-0.337-0.001-0.642-0.137-0.864-0.357l0 0c-0.221-0.217-0.358-0.519-0.36-0.853v-0c0-0.001 0-0.003 0-0.004 0-0.333 0.135-0.634 0.352-0.852l-0 0c0.222-0.216 0.526-0.348 0.861-0.348 0.002 0 0.004 0 0.006 0h-0c0.324 0.002 0.635 0.13 0.864 0.356 0.221 0.217 0.358 0.519 0.36 0.853v0c0 0.001 0 0.003 0 0.004 0 0.333-0.135 0.634-0.352 0.852l0-0z"></path>
</symbol>
</defs>
</svg>
